<svg xmlns="http://www.w3.org/2000/svg" id="Camada_2" data-name="Camada 2" viewBox="0 0 666.5 190.18"><defs><style>      .cls-1 {        fill: #858585;      }      .cls-1, .cls-2 {        fill-rule: evenodd;      }      .cls-2 {        fill: #0077c0;      }    </style></defs><g id="Camada_1-2" data-name="Camada 1"><g><path class="cls-1" d="m467.4,154.95l-2.31-5.38h-10.57l-2.31,5.38h-3.84l9.8-22.46h3.65l9.8,22.46h-4.23Zm-7.5-17.82l-3.84,8.94h7.69l-3.84-8.94h0Zm23.83,18.16c-5.77,0-9.42-3.38-9.42-9.85v-12.83h3.84v12.72c0,4.12,2.11,6.36,5.57,6.36s5.77-2.12,5.77-6.24v-12.83h3.84v12.66c0,6.64-3.84,10.02-9.61,10.02h0Zm24.41-19.02v18.67h-3.84v-18.67h-7.11v-3.67h18.07v3.67h-7.11Zm20.76,19.02c-6.92,0-11.72-5.16-11.72-11.46v-.06c0-6.3,4.8-11.51,11.72-11.51s11.53,5.16,11.53,11.46v.06c0,6.3-4.8,11.51-11.53,11.51h0Zm7.5-11.51c0-4.35-3.08-7.91-7.5-7.91s-7.69,3.49-7.69,7.85v.06c0,4.35,3.27,7.96,7.69,7.96s7.5-3.55,7.5-7.91v-.06h0Zm26.91,11.17v-15.98l-7.11,10.48-7.11-10.43v15.93h-3.84v-22.34h4.23l6.73,10.54,6.92-10.54h4.04v22.34h-3.84Zm26.91,0l-2.31-5.38h-10.57l-2.31,5.38h-4.04l9.8-22.46h3.65l9.8,22.46h-4.04Zm-7.69-17.82l-3.65,8.94h7.5l-3.84-8.94h0Zm24.79-1.26c-4.42,0-7.5,3.49-7.5,7.85v.06c0,4.35,3.08,7.96,7.5,7.96,2.69,0,4.42-1.15,6.34-2.92l2.5,2.52c-2.11,2.29-4.61,3.78-8.26,3.95l-2.11,4.93-3.46-1.43,2.5-3.72c-5.38-.97-9.03-5.56-9.03-11.23v-.06c0-6.36,4.8-11.51,11.53-11.51,4.04,0,6.53,1.43,8.65,3.44l-2.5,2.92c-1.73-1.66-3.65-2.75-6.15-2.75h0Zm25.37-5.38c-1.73,0-3.65-1.26-4.8-1.26-.77,0-1.15.52-1.73,1.55l-2.11-.69c.77-2.46,1.73-3.9,3.65-3.9,1.73,0,3.46,1.26,4.61,1.26.96,0,1.35-.52,1.73-1.55l2.11.63c-.58,2.52-1.54,3.95-3.46,3.95h0Zm-.77,2l9.8,22.46h-4.23l-2.31-5.38h-10.57l-2.31,5.38h-3.84l9.8-22.46h3.65Zm1.92,13.58l-3.84-8.94-3.84,8.94h7.69Zm20.95,9.22c-6.92,0-11.72-5.16-11.72-11.46v-.06c0-6.3,5-11.51,11.72-11.51s11.72,5.16,11.72,11.46v.06c0,6.3-5,11.51-11.72,11.51h0Zm7.5-11.51c0-4.35-3.08-7.91-7.5-7.91s-7.5,3.49-7.5,7.85v.06c0,4.35,3.08,7.96,7.5,7.96s7.5-3.55,7.5-7.91v-.06h0Zm-211.79,46.06v-22.28h3.84v22.28h-3.84Zm25.95,0l-12.3-15.87v15.87h-3.84v-22.28h3.65l11.92,15.41v-15.41h3.84v22.28h-3.27Zm17.3,0h-8.26v-22.28h8.26c7.11,0,11.92,4.81,11.92,11.06v.06c0,6.3-4.8,11.17-11.92,11.17h0Zm7.88-11.17c0-4.35-3.08-7.56-7.88-7.56h-4.23v15.18h4.23c4.8,0,7.88-3.15,7.88-7.56v-.06h0Zm17.87,11.51c-5.77,0-9.42-3.32-9.42-9.8v-12.83h3.84v12.66c0,4.12,2.31,6.36,5.77,6.36s5.57-2.06,5.57-6.19v-12.83h3.84v12.6c0,6.7-3.65,10.02-9.61,10.02h0Zm23.64-13.29c4.8,1.15,7.3,2.86,7.3,6.53v.06c0,4.18-3.46,6.7-8.07,6.7-3.46,0-6.53-1.2-9.23-3.61l2.31-2.81c2.11,1.89,4.23,2.92,7.11,2.92,2.31,0,3.84-1.15,3.84-2.81v-.06c0-1.6-.96-2.46-5-3.44-4.8-1.15-7.5-2.52-7.5-6.64v-.06c0-3.84,3.27-6.47,7.69-6.47,3.27,0,5.77.97,8.07,2.81l-2.11,2.98c-1.92-1.49-4.04-2.29-5.96-2.29-2.31,0-3.65,1.15-3.65,2.64v.06c0,1.72.96,2.46,5.19,3.49h0Zm20.76-5.73v18.67h-3.84v-18.67h-7.11v-3.61h18.07v3.61h-7.11Zm24.22,10.25l5.96,8.42h-4.61l-5.38-7.79h-5v7.79h-3.84v-22.28h9.8c2.88,0,5,.8,6.53,2.23,1.15,1.2,1.73,2.86,1.73,4.81v.06c0,3.67-2.11,5.84-5.19,6.76h0Zm1.35-6.64c0-2.35-1.73-3.67-4.61-3.67h-5.77v7.5h5.77c2.69,0,4.61-1.49,4.61-3.72v-.11h0Zm9.03,15.07v-22.28h3.84v22.28h-3.84Zm27.1,0l-2.31-5.38h-10.57l-2.31,5.38h-4.04l9.8-22.46h3.65l9.8,22.46h-4.04Zm-7.69-17.76l-3.84,8.88h7.69l-3.84-8.88h0Zm15.57,17.76v-22.28h4.04v18.73h11.72v3.55h-15.76Z"></path><g><path class="cls-2" d="m156.44,188.35H0L156.44,0v188.35h0Zm-87.83-32.42c18.45.11,38.05-.23,56.31.06v-67.82c-.19,0-.19.06-.19.11s0,.11-.19.11l-9.42,11.34c-.38.4-.58.57-.77,1.03l-7.11,8.42c-3.46,4.01-10.38,12.49-14.03,17.01l-24.6,29.73h0Z"></path><path class="cls-2" d="m178.73,71.6h30.94v63.7c0,5.5.96,24.46,20.37,24.46,9.99,0,15.18-4.75,18.07-10.25,1.92-4.12,2.69-9.8,2.69-13.4v-64.5h31.71v117.55h-30.94v-19.25s-14.99,19.25-36.71,19.25c-26.33,0-33.63-20.79-35.36-30.3-.58-4.3-.77-8.31-.77-12.6v-74.64h0Z"></path><path class="cls-2" d="m376.88,154.15v27.04s-12.3,7.96-25.75,7.96c-18.83,0-26.14-11.63-28.83-19.13-1.73-5.16-1.54-9.62-1.54-14.78v-57.68h-17.49v-25.95h16.91v-29.16h28.06v29.16h28.64v25.95h-28.06v47.2c0,3.44-.19,5.84,1.92,9.28,3.08,4.64,10.19,10.14,26.14.11h0Z"></path><path class="cls-2" d="m396.09,189.61v-118.23h33.25v118.23h-33.25Zm0-124.42v-22.51h33.25v22.51h-33.25Z"></path></g></g></g></svg>